<?xml version="1.0" encoding="UTF-8" standalone="no"?>
<!-- Created with Inkscape (http://www.inkscape.org/) -->

<svg
   width="209.22427mm"
   height="176.8831mm"
   viewBox="0 0 209.22427 176.8831"
   version="1.1"
   id="svg5"
   inkscape:version="1.1.1 (3bf5ae0d25, 2021-09-20)"
   sodipodi:docname="sesame-logo.svg"
   xmlns:inkscape="http://www.inkscape.org/namespaces/inkscape"
   xmlns:sodipodi="http://sodipodi.sourceforge.net/DTD/sodipodi-0.dtd"
   xmlns="http://www.w3.org/2000/svg"
   xmlns:svg="http://www.w3.org/2000/svg">
  <sodipodi:namedview
     id="namedview7"
     pagecolor="#505050"
     bordercolor="#ffffff"
     borderopacity="1"
     inkscape:pageshadow="0"
     inkscape:pageopacity="0"
     inkscape:pagecheckerboard="1"
     inkscape:document-units="mm"
     showgrid="false"
     inkscape:snap-bbox="false"
     inkscape:bbox-paths="true"
     inkscape:bbox-nodes="true"
     inkscape:snap-bbox-edge-midpoints="true"
     inkscape:snap-bbox-midpoints="true"
     inkscape:snap-page="true"
     inkscape:object-nodes="false"
     inkscape:snap-nodes="false"
     inkscape:snap-global="true"
     inkscape:zoom="0.64052329"
     inkscape:cx="227.15802"
     inkscape:cy="320.83143"
     inkscape:window-width="1920"
     inkscape:window-height="1009"
     inkscape:window-x="1912"
     inkscape:window-y="-8"
     inkscape:window-maximized="1"
     inkscape:current-layer="layer1"
     fit-margin-top="0"
     fit-margin-left="0"
     fit-margin-right="0"
     fit-margin-bottom="0" />
  <defs
     id="defs2" />
  <g
     inkscape:label="Calque 1"
     inkscape:groupmode="layer"
     id="layer1"
     transform="translate(-0.38786827,-120.11689)">
    <path
       style="fill:#000000;fill-opacity:1;stroke:#000000;stroke-width:0.400807;stroke-opacity:1"
       d="m 197.51763,271.47729 c -3.85471,1.22923 -7.85426,1.28149 -11.67602,0.15255 -5.24754,-1.55006 -9.1209,-5.45919 -11.1934,-11.29675 -3.2177,-9.06316 -2.59853,-16.91552 2.08095,-26.39126 1.89388,-3.83496 6.62164,-10.71743 8.77764,-12.77808 1.7849,-1.70595 3.10656,-1.48872 6.3455,1.04289 6.25838,4.89169 10.85045,10.2374 13.88519,16.16402 2.59519,5.06939 3.33738,8.00341 3.457,13.67617 0.1043,4.9467 -1.00297,9.69393 -2.96407,12.70792 -1.98094,3.04447 -5.3638,5.65461 -8.71279,6.72254 z m 5.97998,-4.795 c 5.59759,-5.35469 6.43452,-18.40487 1.76347,-27.4977 -2.85067,-5.54924 -8.69215,-12.22496 -14.44366,-16.50644 -3.25852,-2.42568 -3.84841,-2.21125 -7.59385,2.76036 -6.17158,8.19208 -9.69546,16.90909 -9.62285,23.80403 0.0848,8.05211 3.27366,15.80018 7.92436,19.25398 3.63345,2.69837 8.4019,3.60067 13.52279,2.55884 2.56095,-0.52103 6.61777,-2.6206 8.44975,-4.37306 z m -9.58905,0.4489 c -7.02401,0.85819 -11.60477,-1.61248 -14.1205,-7.61593 -2.39487,-5.715 -2.61067,-12.02722 -0.61944,-18.11909 1.51342,-4.63007 7.11529,-14.30396 8.77748,-15.15784 0.64918,-0.33349 4.73728,3.12147 8.19419,6.92513 2.23433,2.45842 3.15521,3.81818 5.04639,7.45133 2.04813,3.93467 2.36004,4.79899 2.72021,7.54007 1.14539,8.71543 -1.13691,15.12116 -6.30698,17.70193 -1.20133,0.59959 -2.86241,1.17313 -3.69135,1.2744 z m 6.76343,-4.99267 c 2.05646,-2.85334 2.98064,-8.62516 2.25057,-14.05556 -0.59038,-4.39126 -3.63844,-10.05433 -7.89486,-14.66808 -2.71368,-2.94151 -6.36448,-6.19313 -6.73797,-6.00127 -0.53055,0.27255 -3.55814,4.61989 -5.25263,7.54232 -2.38256,4.10909 -4.42285,10.92385 -4.34432,14.51049 0.12728,5.8128 2.43726,12.24571 5.20871,14.50532 4.75919,3.88024 13.32773,2.9436 16.7705,-1.83322 z m -14.5039,1.77006 c -0.83943,-0.13488 -1.16318,-0.57437 -2.70916,-3.67754 -2.75552,-5.53099 -3.45508,-12.40182 -1.4977,-14.70905 1.86925,-2.20338 4.93388,0.009 3.93908,2.84391 -0.6558,1.86875 0.0829,5.99575 1.75237,9.79047 1.55669,3.5383 1.61108,4.80489 0.23669,5.51092 -0.42235,0.21697 -1.19692,0.32554 -1.72128,0.24129 z m 1.7203,-1.70525 c 0.24939,-0.54589 -0.0682,-1.63375 -1.22982,-4.21218 -1.7272,-3.834 -2.35223,-7.34227 -1.76514,-9.90787 0.40995,-1.79154 -0.18804,-2.77319 -1.42789,-2.34401 -1.13115,0.39155 -1.66701,1.81638 -1.64476,4.37327 0.0387,4.44424 2.68549,11.98673 4.47441,12.75051 0.92444,0.39469 1.15514,0.29914 1.5932,-0.65972 z m -30.25447,23.29746 c -2.85846,0.47317 -6.99287,-0.1238 -8.43957,-1.2186 -0.79505,-0.60164 -1.00863,-0.99808 -1.09327,-2.02907 -0.21014,-2.56139 1.46172,-3.63815 4.60032,-2.96287 3.10693,0.66845 5.57099,0.225 8.25302,-1.48527 3.83673,-2.44658 5.96512,-5.96189 6.00672,-9.92079 0.029,-2.76099 -2.67151,-8.31802 -5.51976,-11.35838 -1.17555,-1.25482 -2.55761,-2.89843 -3.07123,-3.65245 -0.81604,-1.19797 -0.86088,-1.53029 -0.3551,-2.63385 0.65942,-1.43885 1.07463,-1.72479 2.60962,-1.79702 3.3728,-0.15872 10.93618,10.36749 12.07405,16.80388 1.08525,6.13874 -0.9507,11.54474 -5.95504,15.81219 -2.65681,2.26559 -6.09816,3.9437 -9.10981,4.44226 z m 9.70619,-6.36628 c 3.67408,-3.7791 5.36614,-8.80402 4.54132,-13.48642 -0.62253,-3.5341 -3.96854,-9.7963 -6.923,-12.9567 -2.93027,-3.13454 -3.84918,-3.65515 -5.21411,-2.95398 -1.65801,0.85174 -1.40768,2.16023 0.82938,4.33511 2.8639,2.78432 5.67862,7.01499 6.55868,9.85801 1.40542,4.54021 0.97277,7.36119 -1.71591,11.18833 -1.18342,1.68452 -1.72051,2.0937 -4.89257,3.72754 -3.76659,1.94053 -4.89495,2.09389 -9.13519,1.245 -1.28733,-0.25772 -1.38155,-0.21945 -1.95727,0.79495 -1.20945,2.13108 0.60402,3.53629 4.86976,3.77344 4.73532,0.26327 9.28598,-1.66509 13.03891,-5.52528 z m -30.67916,11.3046 c -3.26406,0.89083 -6.6713,0.67856 -10.89651,-0.67879 -10.82785,-3.47848 -17.77017,-11.30023 -21.89981,-24.67404 -1.51502,-4.90637 -2.22426,-8.42483 -1.96606,-9.75334 0.3184,-1.63814 2.12991,-2.56478 6.78787,-3.47167 7.29572,-1.42112 14.47,-1.45328 20.31483,-0.0911 l 3.14794,0.73366 -0.70637,-1.05313 c -0.4846,-0.72255 -0.66546,-1.77387 -0.57618,-3.34905 0.15762,-2.78069 1.11271,-4.0295 3.0141,-3.94108 l 1.27085,0.0591 -1.17386,-1.12569 c -5.38943,-5.16825 -8.50407,-13.90143 -8.76305,-24.57077 -0.13372,-5.50923 0.13251,-9.44465 0.7298,-10.7887 0.60205,-1.35469 2.34087,-1.80485 6.07515,-1.57278 10.19643,0.63368 19.81367,4.03473 25.64144,9.06788 4.49608,3.88304 8.88627,11.27303 9.52844,16.03917 0.94018,6.97809 -2.43012,13.39663 -9.14825,17.42235 -6.14577,3.68273 -12.75651,3.22194 -19.25954,-1.34246 -1.80862,-1.26944 -2.06838,-1.34794 -1.88746,-0.5705 0.1154,0.49583 0.0682,1.82374 -0.10487,2.95089 -0.2809,1.82929 -0.471,2.12965 -1.77023,2.79707 l -1.45552,0.74771 1.57208,0.65688 c 0.86464,0.36128 2.98808,1.7176 4.71875,3.01408 9.48197,7.10307 12.12965,16.06751 7.28062,24.65069 -2.38431,4.22044 -6.61169,7.78995 -10.47401,8.84405 z m 8.18942,-7.1244 c 3.61179,-4.87921 4.5739,-9.84544 2.92339,-15.08983 -1.98959,-6.32181 -10.98638,-13.83212 -18.52541,-15.46455 -3.8115,-0.82532 -6.69447,-1.05773 -11.34937,-0.91492 -4.70198,0.14423 -12.30148,1.37512 -14.05659,2.27673 -1.26733,0.65104 -1.30249,1.77234 -0.20104,6.41167 1.36096,5.73238 2.59778,8.91551 5.47314,14.08593 3.20862,5.76966 5.73224,8.50225 10.4429,11.30762 5.46525,3.25477 9.39908,4.35114 14.27961,3.97975 2.18899,-0.16656 2.96167,-0.4339 5.72757,-1.98172 2.88959,-1.61707 3.39817,-2.06065 5.2858,-4.61068 z m -10.79048,2.44989 c -4.79337,0.57039 -11.47411,-1.95447 -16.25873,-6.14465 -4.14634,-3.63122 -9.19204,-13.78622 -10.47882,-21.08973 -0.17547,-0.99593 0.94607,-1.4821 4.8068,-2.08371 7.70471,-1.20059 16.43195,-0.24459 21.25171,2.32795 6.16271,3.28935 10.66618,8.87387 10.9915,13.62996 0.39682,5.80118 -4.94482,12.72145 -10.31246,13.36018 z m 6.24532,-4.82785 c 5.52092,-6.75508 3.84916,-13.47497 -4.89828,-19.6894 -5.78245,-4.10802 -13.38588,-5.31135 -23.6823,-3.74801 -2.55746,0.3883 -3.28295,0.62768 -3.31999,1.09536 -0.1194,1.50772 2.17283,7.97599 4.30575,12.1501 3.41391,6.681 6.60523,9.79247 12.89222,12.56963 6.17843,2.7292 11.19132,1.91852 14.7026,-2.37768 z m -7.9395,1.47373 c -3.39867,0.0472 -7.92676,-1.44314 -8.64756,-2.84628 -0.54776,-1.06628 -0.0797,-2.71762 0.91519,-3.22869 0.24842,-0.12761 1.7373,0.11184 3.30863,0.53211 3.22799,0.8634 5.17318,0.96853 6.38654,0.34522 1.4108,-0.72473 2.91087,-0.27382 3.60878,1.08477 1.12627,2.19243 -1.39664,4.05482 -5.57158,4.11287 z m 4.85896,-2.83365 c 0.28492,-1.28519 -0.62362,-1.91886 -2.08613,-1.45501 -1.9794,0.6278 -4.67486,0.50333 -7.12734,-0.32915 -2.257,-0.76613 -3.7749,-0.44521 -3.64294,0.77022 0.32839,3.02487 12.20296,3.96139 12.85641,1.01394 z m 22.4782,-33.23361 c 8.82425,-7.11024 8.88462,-17.2276 0.1643,-27.53502 -3.94065,-4.65786 -10.08165,-8.19681 -17.32205,-9.98241 -4.33133,-1.06817 -11.30356,-1.97948 -13.66347,-1.78588 -1.26329,0.10364 -1.47145,0.23655 -1.96615,1.25523 -0.66614,1.37177 -1.04313,8.59351 -0.68292,13.08237 0.69211,8.62498 3.56222,15.83763 8.29882,20.85507 6.19632,6.56371 12.30968,9.01882 18.70235,7.51084 2.73784,-0.64583 3.63782,-1.11887 6.4691,-3.40023 z m -9.81624,-0.3214 c -3.05212,0.0156 -5.88383,-1.09559 -9.00102,-3.53205 -5.83159,-4.55809 -8.77677,-9.79357 -10.02013,-17.81222 -0.8574,-5.52964 -0.8103,-12.85948 0.0856,-13.31971 0.98481,-0.50591 10.81206,1.36288 14.55868,2.76853 7.07463,2.65427 10.57606,5.59058 14.08077,11.80824 1.95277,3.46439 2.30189,4.34176 2.53261,6.3642 0.56045,4.91325 -1.87221,9.12382 -6.94467,12.02015 -2.6541,1.51551 -3.20326,1.69219 -5.29184,1.70286 z m 7.98154,-4.81901 c 1.58424,-1.54891 2.19923,-2.53417 2.854,-4.57232 1.11989,-3.48589 0.63266,-6.12713 -1.93364,-10.48231 -3.4702,-5.8892 -7.87937,-9.27881 -15.10266,-11.61038 -4.02466,-1.29911 -11.23042,-2.60096 -12.05414,-2.17781 -0.19506,0.10021 -0.39094,1.47615 -0.4353,3.05764 -0.21211,7.56316 1.4944,15.65765 4.16853,19.77277 1.95357,3.00626 5.7647,6.64787 8.61747,8.23414 5.09204,2.83142 9.42673,2.13785 13.88574,-2.22173 z m -9.79469,1.882 c -1.56427,-0.30404 -5.67511,-3.35502 -8.15165,-6.05003 -2.04061,-2.22062 -2.37092,-3.62635 -1.11178,-4.73171 1.25117,-1.09837 2.45296,-0.78517 4.2405,1.10516 2.02305,2.13935 5.68688,5.07839 6.40126,5.13497 0.96701,0.0766 1.81282,2.36943 1.26047,3.41696 -0.6658,1.26271 -1.06124,1.43125 -2.6388,1.12465 z m 2.04402,-2.20504 c -0.0416,-0.38323 -0.43011,-0.90819 -0.86325,-1.1667 -1.88274,-1.12345 -3.76707,-2.6185 -6.01077,-4.76907 -2.12566,-2.03742 -2.52185,-2.26138 -3.4103,-1.92773 -0.72089,0.27072 -0.95199,0.58067 -0.81704,1.09561 0.36661,1.39885 4.84884,5.65813 7.86669,7.47539 1.64303,0.98937 3.3777,0.60997 3.23467,-0.7075 z m -14.16715,8.01333 c 0.18997,-2.6816 -0.28048,-3.686 -1.80189,-3.8471 -1.10472,-0.11696 -1.23487,-0.0494 -1.79113,0.93023 -0.32983,0.58117 -0.57996,1.94125 -0.55585,3.02242 0.0369,1.65502 0.1861,2.07817 0.94374,2.67685 0.73852,0.58355 1.09322,0.58647 1.97791,0.0163 0.86529,-0.55759 1.10742,-1.11 1.22707,-2.79901 z m 19.96494,28.87638 c -3.29801,-0.0856 -4.1886,-3.70001 -1.12585,-4.56921 1.78236,-0.50581 2.17027,-0.70186 3.91229,-1.97728 1.40595,-1.02925 1.60461,-1.06696 2.61132,-0.49562 2.4661,1.39959 1.39646,4.08324 -2.39363,6.0054 -1.14961,0.58381 -2.5018,1.04967 -3.00417,1.03663 z m 5.33926,-4.00419 c 0.70052,-1.01338 -0.0469,-2.53873 -1.15263,-2.35208 -0.44747,0.0756 -1.06395,0.49934 -1.36981,0.94193 -0.55033,0.79611 -2.2936,1.59602 -3.66287,1.68073 -0.42558,0.0263 -0.82044,0.39404 -0.99002,0.92182 -0.34249,1.06602 0.68195,1.94088 2.15502,1.84038 1.16139,-0.0792 4.28158,-1.96416 5.02028,-3.03277 z m 14.19311,-60.71821 c -5.25788,1.21373 -10.87268,0.134 -14.61224,-2.80992 -2.0805,-1.63785 -5.42574,-6.0901 -5.80709,-7.72879 -0.37852,-1.62655 0.13492,-2.68726 1.68667,-3.4844 1.80656,-0.92804 2.74694,-0.37714 4.71284,2.76089 2.06115,3.2901 4.74597,5.19594 7.82891,5.55743 6.48194,0.76007 12.13407,-2.7111 13.41192,-8.23667 0.50433,-2.18072 0.32552,-7.24502 -0.36299,-10.28084 -1.33921,-5.90504 -5.86424,-11.87679 -12.90539,-17.03143 -3.75816,-2.75127 -4.24232,-2.99181 -5.14269,-2.55506 -1.37241,0.66566 -3.18277,0.009 -3.85583,-1.39779 -0.66561,-1.39156 -0.49618,-2.25847 0.78996,-4.04298 1.87651,-2.60364 2.96307,-2.70484 6.50657,-0.60593 5.59538,3.31427 10.81898,7.74489 14.55058,12.34166 7.54667,9.29641 9.08243,23.54466 3.36726,31.24037 -1.40689,1.89442 -2.17229,2.53908 -4.7416,3.99355 -1.95327,1.10571 -3.92045,1.93222 -5.42688,2.27991 z m 6.63584,-4.07499 c 4.08374,-3.18233 6.20238,-8.23029 6.03681,-14.38341 -0.25291,-9.39699 -3.61806,-16.322 -11.41761,-23.49573 -3.86546,-3.55533 -10.29976,-7.94569 -12.08529,-8.24627 -1.29531,-0.21804 -1.29811,-0.21643 -2.52381,1.45385 -2.00146,2.72751 -0.86215,4.93006 2.01227,3.89068 1.45106,-0.5247 1.55503,-0.48133 5.10272,2.12833 9.19249,6.76194 13.65266,13.28074 14.57573,21.30329 0.45783,3.97914 0.22225,6.60236 -0.84447,9.40285 -1.15614,3.03528 -2.80291,4.63135 -6.38385,6.18735 -6.44331,2.79977 -12.15664,1.02873 -15.89253,-4.92642 -1.74776,-2.78601 -2.34549,-3.16466 -3.82059,-2.42025 -1.24414,0.6272 -1.22367,1.7778 0.0727,4.13901 3.98548,7.259 10.81454,10.05994 19.12576,7.84448 3.06627,-0.81735 3.9195,-1.22373 6.04191,-2.87767 z m -13.99545,-4.41286 c -2.07312,-0.66926 -2.84247,-1.16747 -4.05473,-2.62575 -1.31844,-1.58602 -1.48084,-1.94408 -1.36746,-3.01498 0.2452,-2.31585 3.32094,-2.85497 4.39209,-0.76983 0.52565,1.02326 1.62666,1.73122 3.75654,2.41547 1.59346,0.51191 2.08824,1.37612 1.65842,2.89675 -0.49317,1.74475 -1.55703,2.01123 -4.38486,1.09834 z m 3.41227,-1.99094 c -0.11295,-0.38269 -0.98467,-1.00314 -1.93709,-1.37882 -0.95242,-0.37568 -2.05045,-1.0732 -2.44005,-1.55004 -1.45818,-1.78471 -2.19839,-2.19655 -2.96855,-1.65175 -2.35782,1.66794 4.26796,7.47721 6.68227,5.85879 0.51472,-0.34502 0.78512,-0.86601 0.66342,-1.27818 z m -66.64089,28.00457 c -4.903143,1.57595 -12.649039,0.24661 -16.575801,-2.84469 -6.197954,-4.87926 -8.350066,-13.82904 -5.776903,-24.02385 1.901113,-7.53211 7.926607,-15.3709 16.882378,-21.96291 3.939236,-2.89955 5.130356,-3.26743 6.586586,-2.03428 3.17899,2.69195 9.68888,14.2273 11.10491,19.67756 1.59219,6.12841 1.59214,10.86881 -2.6e-4,16.74252 -2.07663,7.65991 -6.17273,12.50171 -12.22091,14.44565 z m 7.04844,-5.98724 c 4.67637,-5.94449 6.4766,-14.70686 4.7263,-23.00464 -0.63826,-3.02577 -1.14196,-4.25502 -4.11545,-10.04333 -3.95687,-7.70261 -6.45186,-11.2405 -8.046,-11.4093 -0.83249,-0.0881 -1.49307,0.21877 -3.49121,1.62203 -9.240932,6.4897 -16.202581,15.5105 -17.787957,23.04936 -1.320742,6.28049 -0.811621,12.718 1.336545,16.89971 3.245095,6.31703 10.518343,9.60582 18.488502,8.36003 2.74997,-0.42983 6.96138,-3.02313 8.88927,-5.47386 z m -9.38768,1.43358 c -3.740492,0.59007 -8.792192,-0.51407 -11.348841,-2.48047 -4.569075,-3.51423 -5.886015,-11.62561 -3.23127,-19.90212 0.934021,-2.91188 1.730674,-4.37391 4.175358,-7.66256 2.77084,-3.7274 6.644132,-7.58639 10.173713,-10.13612 1.12896,-0.81556 1.32983,-0.82807 2.1144,-0.13235 0.47682,0.42286 2.10482,2.9717 3.61777,5.66411 4.09076,7.27985 5.6634,13.03893 5.08306,18.61444 -0.36855,3.54079 -2.31564,9.20297 -3.93104,11.43151 -1.52957,2.11012 -4.68425,4.29298 -6.65315,4.60356 z m 5.49282,-4.65765 c 2.56983,-3.15411 4.49254,-9.78364 4.2307,-14.58752 -0.21307,-3.90924 -1.53509,-8.19263 -4.02135,-13.02932 -2.86921,-5.58094 -4.36678,-7.67147 -5.1899,-7.24301 -0.33022,0.17189 -1.97869,1.53116 -3.663283,3.02059 -6.469182,5.71967 -10.325737,11.58599 -11.309893,17.20373 -1.879358,10.72775 1.596899,17.2848 9.720425,18.33502 4.482301,0.57948 7.692541,-0.58108 10.233301,-3.69949 z M 92.656172,219.9845 c -0.495176,-0.21142 -1.068941,-1.11624 -1.810635,-2.85534 -2.672883,-6.26731 -0.5488,-15.38473 3.250339,-13.95177 1.503181,0.56698 1.812572,1.77769 0.998902,3.90899 -0.857239,2.24545 -0.77293,6.06007 0.195541,8.84729 0.365354,1.05148 0.607452,2.19442 0.538006,2.53989 -0.17588,0.8749 -2.296296,1.88488 -3.17219,1.51086 z m 2.088553,-1.85549 c 0.06709,-0.34426 -0.175652,-1.45455 -0.539434,-2.46732 -0.932924,-2.59731 -0.986549,-5.10127 -0.176711,-8.25087 0.586873,-2.28245 0.581798,-2.80075 -0.0316,-3.22477 -1.173937,-0.81152 -1.855961,-0.0864 -2.77994,2.95564 -0.935693,3.08054 -0.799402,6.4708 0.388251,9.65826 0.892445,2.39519 2.776219,3.19269 3.13943,1.32906 z m 57.114905,-18.20824 c -4.95077,1.06305 -9.58991,-0.0499 -14.36061,-3.44534 -9.5513,-6.79779 -13.76769,-15.98612 -14.04513,-30.60694 -0.12089,-6.37131 0.33644,-8.96225 1.70439,-9.65592 2.24763,-1.13933 11.64472,-0.13613 18.82095,2.00988 7.55274,2.25859 12.14568,5.2322 16.28492,10.54334 5.36841,6.88835 6.97321,13.23526 4.86185,19.22849 -2.03534,5.77738 -7.49733,10.68774 -13.26637,11.92649 z m 9.12063,-6.65682 c 5.71263,-6.56006 5.43055,-14.79173 -0.78904,-23.02635 -4.29856,-5.69118 -8.32085,-8.46832 -15.76728,-10.88625 -7.14229,-2.3192 -17.92861,-3.44537 -19.21602,-2.0063 -0.24361,0.27229 -0.53687,1.4885 -0.65169,2.70265 -0.90559,9.57651 1.26782,21.325 4.9903,26.97526 5.44174,8.25991 14.21672,13.34795 21.1061,12.23807 2.68032,-0.4318 8.34649,-3.72206 10.32763,-5.99708 z m -11.03268,1.87995 c -4.04622,0.43373 -7.85387,-1.10006 -12.31891,-4.96226 -2.5803,-2.23191 -2.7253,-2.43658 -5.29392,-7.47179 -2.48268,-4.86658 -2.67413,-5.40845 -3.19437,-9.03646 -0.65874,-4.59395 -0.79095,-11.83768 -0.22754,-12.46744 0.73215,-0.8184 8.66494,0.39447 14.24086,2.17732 4.33532,1.38617 5.99334,2.15136 8.18214,3.77609 3.36763,2.49974 5.54426,5.10776 7.64939,9.16533 2.52155,4.86019 2.55818,8.53839 0.1252,12.56112 -1.68439,2.785 -6.32401,5.9538 -9.16285,6.25809 z m 5.7872,-3.91871 c 4.57676,-4.13494 5.43347,-8.92741 2.58655,-14.46934 -1.34363,-2.61555 -4.23572,-6.22043 -6.48126,-8.07862 -2.29495,-1.89906 -6.54376,-3.93522 -10.43352,-5.00006 -3.61897,-0.99069 -10.98594,-2.06876 -11.67938,-1.70913 -0.48167,0.24968 -0.21663,7.84154 0.40181,11.51112 1.17226,6.95584 3.54271,11.66142 7.88837,15.65917 6.64216,6.11045 12.50021,6.80045 17.71745,2.08685 z m -13.5571,-0.94512 c -2.77887,-0.54011 -6.9394,-5.70918 -9.09318,-11.29745 -1.35375,-3.51246 -0.61632,-5.51933 1.88289,-5.12416 0.81051,0.12816 1.20397,0.70658 3.57731,5.25926 2.57497,4.93924 2.73566,5.16231 4.67154,6.4831 l 2.00489,1.36783 -0.21972,1.31991 c -0.28101,1.68815 -1.16755,2.3134 -2.82373,1.99151 z m 1.9886,-2.1937 c -0.0403,-0.37078 -0.84113,-1.22668 -1.77974,-1.90198 -1.49807,-1.07784 -2.05276,-1.84819 -4.54042,-6.30576 -2.68797,-4.81651 -2.87498,-5.06373 -3.63272,-4.80196 -1.46852,0.50733 -1.29317,1.57755 0.99121,6.04973 2.24398,4.39142 3.80503,6.41128 5.98335,7.73725 1.42649,0.86835 3.10931,0.42916 2.97832,-0.77728 z"
       id="path856"
       sodipodi:nodetypes="sssssscssssssssssssssssssccssssssssssssssssssssssssssssssssssssssssssssssssssssssscssscssssssssssscsssssssssssssssssssssssssssssssssssssssssssssssssssssssssssssssssssssssssssssccsssscsssssssscscsccccscscsscssssssssscssssssssssssssssssssssssssssssssssssssssssssssssssssssssssssssssscsssssssssssssssssssssscsssssssssssssssssssssscssscscccssscccsssssscssss" />
    <g
       id="g1317"
       transform="matrix(2.5591226,0,0,2.5591226,-720.22574,-245.99352)">
      <path
         style="fill:#000000;stroke-width:0.264583"
         d="m 288.40876,211.86766 c -2.79241,-0.87786 -5.15204,-3.02738 -6.21842,-5.66471 l -0.60414,-1.49413 v -27.11979 -27.11979 l 0.60954,-1.50856 c 0.85441,-2.1146 2.61517,-3.97591 4.75996,-5.03179 l 1.76313,-0.86798 h 33.7455 33.7455 l 1.76313,0.86798 c 2.14479,1.05588 3.90555,2.91719 4.75996,5.03179 l 0.60953,1.50856 v 27.11979 27.11979 l -0.60953,1.50856 c -0.85437,2.1145 -2.61517,3.9759 -4.75986,5.03179 l -1.76301,0.86798 -33.34318,0.0505 c -27.0499,0.041 -33.5536,-0.0156 -34.45811,-0.3 z m 68.9254,-1.04834 c 2.09024,-0.9652 4.03246,-3.01426 4.79899,-5.06298 0.54078,-1.44536 0.54784,-1.80859 0.54784,-28.16731 0,-26.35872 -0.007,-26.72195 -0.54784,-28.16732 -0.76653,-2.04872 -2.70875,-4.09778 -4.79899,-5.06298 l -1.66462,-0.76866 h -33.20521 -33.20521 l -1.66462,0.76866 c -2.09025,0.9652 -4.03247,3.01426 -4.79899,5.06298 -0.54078,1.44537 -0.54785,1.8086 -0.54785,28.16732 0,26.2882 0.008,26.72563 0.54339,28.1554 1.01844,2.72203 3.84751,5.13253 6.6943,5.70386 0.60318,0.12106 15.74137,0.20201 33.64044,0.1799 l 32.54375,-0.0402 z m -67.59447,-5.16948 c -2.05897,-0.9348 -1.93578,0.63129 -1.93578,-24.60809 v -22.50272 h 34.66042 34.66041 v 22.50272 c 0,25.23938 0.1232,23.67329 -1.93577,24.60809 -1.06763,0.48472 -2.22971,0.50257 -32.72464,0.50257 -30.49493,0 -31.65702,-0.0179 -32.72464,-0.50257 z m 65.11875,-0.53755 c 0.37321,-0.1419 0.9163,-0.64791 1.20686,-1.12448 0.51682,-0.84766 0.52832,-1.34515 0.52929,-22.89305 l 9.9e-4,-22.02656 h -34.13125 -34.13125 l 4.2e-4,21.89427 c 3.7e-4,20.3157 0.0338,21.96077 0.46302,22.81663 0.25444,0.5073 0.76027,1.07109 1.12407,1.25287 0.83713,0.41828 63.84397,0.49622 64.93786,0.0803 z M 295.5448,190.08454 c -0.0935,-0.2437 1.74029,-2.26359 5.15675,-5.68006 l 5.30187,-5.30187 -5.28983,-5.25931 c -3.54085,-3.52042 -5.24007,-5.38901 -5.13931,-5.65159 0.12359,-0.32207 0.84811,-0.39226 4.049,-0.39226 h 3.89848 l 5.69701,5.67958 5.69701,5.67959 -5.55229,5.55411 -5.55229,5.55411 -4.06063,0.0979 c -3.34107,0.0806 -4.08636,0.0309 -4.20577,-0.28024 z m 13.0289,-5.61634 5.28671,-5.29167 -5.28671,-5.29167 -5.2867,-5.29166 h -3.43958 -3.43959 l 5.28671,5.29166 5.2867,5.29167 -5.2867,5.29167 -5.28671,5.29166 h 3.43959 3.43958 z"
         id="path968"
         sodipodi:nodetypes="sscccsscccsscccssccssssscscccssscsscscscccsssccsscccccscccscsssccccccccccccccccccccc" />
      <path
         style="fill:#000000;stroke:#000000;stroke-width:0.799018;stroke-linecap:round;stroke-linejoin:round;stroke-dashoffset:28;stroke-opacity:1;paint-order:stroke fill markers"
         d="m 1099.5359,799.30181 c -7.4372,-0.30567 -7.8832,-0.39241 -11.8675,-2.30758 -10.2231,-4.91418 -17.8347,-13.63155 -19.9496,-22.84809 -0.8266,-3.6021 -1.3367,-178.69551 -0.5685,-195.14701 0.5823,-12.47058 1.102,-14.68311 4.7338,-20.15292 4.1386,-6.23316 9.6852,-10.78968 17.6402,-14.49137 l 3.7878,-1.76257 h 125.5093 125.5092 l 5.1393,2.50059 c 10.7747,5.24258 18.392,14.10062 20.396,23.71826 0.9975,4.78701 1.006,199.2567 0.01,204.50522 -1.8456,9.71562 -9.4663,18.67378 -20.4195,24.0032 l -5.1247,2.49348 -118.5335,-0.0968 c -65.1934,-0.0532 -122.011,-0.23972 -126.2612,-0.41441 z m 226.3101,-20.69168 c 11.7898,-0.1967 13.5867,-0.34879 16.3304,-1.38219 3.7877,-1.42661 5.2282,-2.89516 6.001,-6.11767 1.1841,-4.93786 1.6428,-33.02386 1.661,-101.70155 l 0.019,-69.96294 h -131.0943 -131.0943 l 0.028,70.23893 c 0.028,70.49525 0.4328,95.96113 1.6084,101.21614 0.7943,3.55084 1.9137,4.75202 5.9295,6.36255 l 3.1976,1.28239 53.5416,0.28407 c 55.0853,0.29225 150.406,0.17179 173.8724,-0.21973 z"
         id="path1062"
         transform="scale(0.26458333)" />
      <path
         style="fill:#000000;stroke:#000000;stroke-width:0.799018;stroke-linecap:round;stroke-linejoin:round;stroke-dashoffset:28;stroke-opacity:1;paint-order:stroke fill markers"
         d="m 1140.3821,697.14551 19.8654,-19.87113 -19.7303,-19.73598 c -10.8516,-10.85478 -19.7302,-19.92099 -19.7302,-20.14712 0,-0.22613 5.6521,-0.41114 12.5603,-0.41114 h 12.5602 l 20.1415,20.1471 20.1414,20.1471 -19.8654,19.87114 -19.8654,19.87116 h -12.9714 -12.9715 z"
         id="path1140"
         transform="scale(0.26458333)" />
    </g>
    <path
       style="fill:#000000;fill-opacity:1;stroke:none;stroke-width:0.799018;stroke-linecap:round;stroke-linejoin:round;stroke-dashoffset:28;paint-order:stroke fill markers"
       d="m 555.53685,944.71743 c -9.19966,-1.74713 -19.47096,-6.33281 -28.21007,-12.59456 -27.66925,-19.82558 -43.40693,-46.95612 -49.05322,-84.56394 -1.51492,-10.0903 -2.0682,-31.4349 -1.13269,-43.69713 1.07732,-14.1211 2.43509,-18.88641 5.86585,-20.58722 5.86555,-2.90785 45.36081,2.33529 65.10531,8.64297 20.39441,6.5153 36.19263,15.49495 49.30395,28.02418 11.92238,11.39309 23.1286,28.45447 27.67965,42.14207 2.71398,8.16244 3.48546,12.89998 3.47734,21.35356 -0.006,6.55333 -0.22682,8.56048 -1.4511,13.20802 -3.63781,13.80958 -11.60188,24.93384 -26.07965,36.42817 -10.64598,8.45217 -19.92351,11.79572 -33.88703,12.21267 -5.0381,0.15044 -8.80124,-0.0338 -11.61834,-0.56879 z m 20.66426,-16.27282 c 3.96161,-1.36299 12.19043,-5.95703 16.955,-9.46576 7.43917,-5.47833 13.71656,-13.14793 16.89187,-20.63814 3.68512,-8.6928 3.75952,-21.6193 0.17633,-30.63466 -1.76973,-4.45267 -8.49915,-16.53261 -12.75723,-22.90044 -16.69291,-24.96374 -41.15721,-37.52347 -87.1654,-44.74988 -10.95293,-1.72035 -15.18579,-1.77772 -16.02098,-0.21716 -1.21739,2.27472 -1.69744,7.68745 -1.6925,19.08333 0.0188,43.33786 10.70589,72.26871 34.25556,92.73273 10.49053,9.11598 19.83275,14.60499 28.44395,16.71221 6.2485,1.52904 16.5835,1.56748 20.9134,0.0778 z"
       id="path1993"
       transform="scale(0.26458333)" />
    <path
       style="fill:#000000;fill-opacity:1;stroke:none;stroke-width:0.799018;stroke-linecap:round;stroke-linejoin:round;stroke-dashoffset:28;stroke-opacity:1;paint-order:stroke fill markers"
       d="m 365.13203,869.65975 c -13.1167,-2.15899 -25.01355,-7.89138 -33.90378,-16.33624 -9.4658,-8.99158 -15.0242,-19.5116 -17.72185,-33.54098 l -0.98939,-5.14539 c -2.75747,-14.46919 -4.82415,-7.45958 -0.57951,-23.60326 l 0.69192,-5.95998 c 1.44437,-12.44132 3.95932,-20.9683 9.46525,-32.09209 6.83786,-13.81471 16.21163,-26.64961 29.23796,-40.03361 10.96232,-11.26332 22.76121,-21.1612 33.87076,-28.41359 8.01594,-5.23286 10.27522,-5.17862 15.83401,0.38016 6.06438,6.06438 13.45189,18.0674 25.58154,41.56418 7.52197,14.57106 11.13271,23.03686 13.05937,30.61919 6.82916,26.87601 3.944,54.64267 -8.11629,78.11082 -6.09578,11.8618 -12.38419,19.04516 -22.51512,25.71946 -5.12924,3.37916 -13.01685,7.07531 -17.43861,8.17177 -5.02247,1.24542 -20.34236,1.5692 -26.47626,0.55956 z m 19.50669,-15.18209 c 3.49975,-0.36819 5.89899,-0.99048 8.48565,-2.20092 8.61872,-4.03319 17.00761,-11.23191 21.08307,-18.09191 4.61421,-7.76688 10.61247,-24.90498 12.41634,-35.47577 3.77596,-22.12731 -1.76823,-45.41086 -17.58734,-73.86023 -8.73324,-15.70605 -15.19585,-24.94344 -17.45076,-24.94344 -4.26716,0 -28.21662,21.67268 -39.3426,35.60244 -7.08215,8.86687 -13.95995,19.39882 -16.46936,25.21946 -2.50712,5.8153 -5.51389,15.85947 -6.76956,22.61376 -4.22106,22.70536 -0.0825,44.63513 10.74163,56.91922 6.55283,7.43665 18.59845,12.65685 32.57011,14.11488 6.49276,0.67756 6.83015,0.68037 12.32282,0.10251 z"
       id="path2032"
       transform="scale(0.26458333)"
       sodipodi:nodetypes="sssccsssssssssssssssssssssss" />
    <path
       style="fill:#000000;fill-opacity:1;stroke:none;stroke-width:0.799018;stroke-linecap:round;stroke-linejoin:round;stroke-dashoffset:28;paint-order:stroke fill markers"
       d="m 550.8719,752.55955 c -22.09034,-4.83836 -45.03454,-21.68699 -60.45412,-44.39333 -10.07682,-14.83878 -17.54174,-41.28263 -19.84529,-70.30028 -0.61344,-7.72749 -0.75455,-25.7893 -0.21715,-27.79462 0.32691,-1.21986 0.48422,-1.24195 8.8435,-1.24195 h 8.51067 l -0.68586,1.24195 c -1.65394,2.99492 -1.08584,29.03822 0.98431,45.12402 1.74304,13.54406 3.70576,19.04508 13.52425,37.90529 7.93156,15.23562 10.08156,18.24062 17.75873,24.82085 14.49181,12.42117 25.50547,18.11095 37.74001,19.49689 10.54277,1.1943 18.86438,-1.34663 29.71939,-9.07457 16.35282,-11.64197 23.80607,-27.85469 20.45222,-44.48878 -1.89007,-9.37414 -8.41384,-22.80493 -16.06585,-33.07548 -7.39597,-9.92689 -19.63961,-20.37064 -29.77726,-25.39981 -12.20418,-6.05435 -31.68486,-11.78537 -51.60975,-15.18306 l -7.45167,-1.27069 30.55123,-0.0483 30.55123,-0.0483 5.05121,2.5363 c 10.49146,5.26793 21.09206,13.35789 28.55091,21.78894 14.40549,16.28312 22.38451,30.65602 25.71849,46.32767 1.53853,7.23198 1.30742,18.54555 -0.52001,25.45651 -2.66392,10.07442 -8.44972,20.19933 -15.57682,27.25881 -6.7911,6.72665 -22.1384,16.06505 -32.30206,19.65487 -4.66366,1.64721 -17.40407,2.03136 -23.45031,0.70708 z"
       id="path2071"
       transform="scale(0.26458333)" />
    <path
       style="fill:#000000;fill-opacity:1;stroke:none;stroke-width:0.799018;stroke-linecap:round;stroke-linejoin:round;stroke-dashoffset:28;paint-order:stroke fill markers"
       d="m 637.53211,803.09274 c -19.62213,-2.64486 -36.08987,-14.98081 -45.37179,-33.98792 -4.04971,-8.29283 -3.74563,-11.61271 1.28003,-13.97506 4.94855,-2.32609 7.06777,-0.87105 14.02988,9.63279 10.45267,15.7701 22.67821,23.12182 38.34152,23.05633 9.324,-0.039 16.24291,-1.95372 27.04682,-7.48493 11.93668,-6.11114 18.82879,-16.28031 21.54485,-31.789 1.59002,-9.07903 0.68336,-25.61435 -1.97634,-36.04349 -4.57316,-17.9322 -13.37287,-32.58941 -28.9521,-48.22402 -13.24776,-13.29485 -34.68974,-29.5052 -39.02752,-29.5052 -0.77215,0 -2.45992,0.37258 -3.75061,0.82796 -1.29068,0.45538 -3.66255,0.82796 -5.27082,0.82796 -7.472,0 -8.72888,-6.52119 -2.92837,-15.19367 3.72183,-5.56459 5.01084,-6.51861 8.19064,-6.062 3.72287,0.53459 10.53507,4.037 19.30817,9.92705 28.89426,19.39894 49.25705,40.60242 59.889,62.36155 10.45043,21.38764 13.9745,49.3236 8.80707,69.81525 -4.1131,16.31071 -13.43991,29.00511 -27.58563,37.54586 -9.60457,5.79895 -31.32554,9.92162 -43.5748,8.27054 z"
       id="path2110"
       transform="scale(0.26458333)" />
    <path
       style="fill:#000000;fill-opacity:1;stroke:none;stroke-width:0.799018;stroke-linecap:round;stroke-linejoin:round;stroke-dashoffset:28;paint-order:stroke fill markers"
       d="m 711.65442,1025.2672 c -5.35128,-0.8332 -13.24373,-3.3138 -17.67565,-5.5553 -20.6512,-10.4448 -34.76821,-36.83487 -37.5247,-70.14807 -1.43983,-17.40086 2.1759,-35.38412 11.22883,-55.84793 7.17138,-16.21061 18.80524,-34.84623 30.72777,-49.22105 8.88954,-10.71799 12.09722,-11.02814 23.57375,-2.27932 l 4.96778,3.78706 0.15018,10.29975 c 0.0826,5.66487 0.0101,10.29976 -0.16118,10.29976 -0.17124,0 -2.18304,-1.63236 -4.47066,-3.62747 -4.43061,-3.86407 -10.39762,-7.96403 -11.59072,-7.96403 -4.2725,0 -25.4066,35.32177 -32.44613,54.22776 -3.71425,9.97531 -6.40308,24.32193 -6.40308,34.16451 0,17.50274 5.44783,36.59616 13.96799,48.95466 7.91578,11.48187 20.58246,17.70487 36.12381,17.74737 l 4.00183,0.011 v 4.6108 c 0,2.536 -0.15958,6.1376 -0.35462,8.0037 l -0.35462,3.3928 -4.47517,-0.053 c -2.46134,-0.029 -6.63977,-0.3905 -9.28541,-0.8024 z"
       id="path2149"
       transform="scale(0.26458333)" />
    <path
       style="fill:#000000;fill-opacity:1;stroke:none;stroke-width:0.799018;stroke-linecap:round;stroke-linejoin:round;stroke-dashoffset:28;paint-order:stroke fill markers"
       d="m 608.40285,1052.9686 c 10.96054,-5.8337 13.31722,-7.8179 18.13931,-15.2721 6.15446,-9.5138 8.29559,-16.5433 7.79697,-25.598 -0.90987,-16.52308 -9.45725,-32.6597 -27.5436,-51.99969 -7.50807,-8.02848 -8.68906,-11.20802 -5.38885,-14.50824 2.27304,-2.27303 5.39595,-3.18486 8.11266,-2.36872 3.94651,1.18559 12.84656,9.72768 19.911,19.11018 6.77962,9.00421 14.90071,24.33081 18.28975,34.51752 5.56094,16.71495 2.28493,34.88845 -9.16696,50.85315 -1.65399,2.3057 -3.95592,5.1186 -5.1154,6.2508 l -2.10813,4.0586 -14.83796,-1.7256 -14.83796,0.2743 z"
       id="path2188"
       transform="scale(0.26458333)"
       sodipodi:nodetypes="sssssssssscccs" />
    <path
       style="fill:#000000;fill-opacity:1;stroke:none;stroke-width:0.799018;stroke-linecap:round;stroke-linejoin:round;stroke-dashoffset:28;paint-order:stroke fill markers"
       d="m 422.91594,1054.6879 c -3.71923,-4.5839 -10.05472,-15.3716 -16.12836,-27.4624 -6.73047,-13.3983 -10.57515,-24.0569 -14.53397,-40.29267 -2.92986,-12.01578 -3.55768,-15.89252 -3.27999,-20.25361 0.19652,-3.08629 0.44985,-3.8182 1.69106,-4.88585 2.08743,-1.79552 6.35991,-3.25908 14.23833,-4.87739 32.62402,-6.70132 65.66364,-6.90133 87.72158,-0.53103 15.44481,4.46044 31.58843,14.32254 45.48234,27.78505 14.54181,14.0903 21.24361,26.374 23.02462,42.2017 0.99445,8.8376 -0.60012,19.588 -4.15911,28.0402 l -0.87158,4.0699 h -8.8702 c -4.87862,0 -8.78741,-0.1863 -8.68621,-0.414 0.10119,-0.2277 1.10865,-4.3176 2.23878,-6.6442 4.53878,-9.3441 5.90386,-19.2002 3.81063,-27.5133 -4.29389,-17.053 -19.69653,-34.48764 -40.36391,-45.68915 -8.48661,-4.59965 -23.81387,-8.66679 -37.76822,-10.02193 -7.79664,-0.75714 -26.04364,-0.75167 -33.75479,0.0101 -8.18878,0.80898 -20.36917,3.08918 -23.20666,4.34434 -4.05162,1.79223 -4.27042,2.62296 -2.62846,9.97968 5.26996,23.61176 21.15529,56.02936 34.41064,70.22266 l 3.99512,4.2778 h -10.22913 -10.22912 z"
       id="path2227"
       transform="scale(0.26458333)"
       sodipodi:nodetypes="sssssssssscsssssssssscccs" />
    <path
       style="fill:#000000;fill-opacity:1;stroke:none;stroke-width:0.799018;stroke-linecap:round;stroke-linejoin:round;stroke-dashoffset:28;paint-order:stroke fill markers"
       d="m 585.58463,1045.4533 c -2.13494,-0.8626 -3.65974,-3.3894 -3.31762,-5.4976 0.42427,-2.6145 1.97734,-3.9702 5.12552,-4.4741 4.9831,-0.7976 8.93291,-2.6776 12.1285,-5.7727 3.64515,-3.5305 5.75798,-4.5494 7.64809,-3.6882 3.01194,1.3723 4.18212,5.7291 2.30731,8.5904 -1.52902,2.3336 -6.8819,6.2614 -12.15667,8.9203 -3.96789,2.0001 -5.41983,2.4563 -7.72766,2.4279 -1.56297,-0.019 -3.36633,-0.247 -4.00747,-0.506 z"
       id="path2266"
       transform="scale(0.26458333)" />
    <path
       style="fill:#000000;fill-opacity:1;stroke:none;stroke-width:0.799018;stroke-linecap:round;stroke-linejoin:round;stroke-dashoffset:28;paint-order:stroke fill markers"
       d="m 702.46794,992.18201 c -3.38411,-3.05734 -8.21924,-13.13557 -11.14468,-23.2297 -4.49075,-15.49517 -5.32137,-28.86726 -2.22757,-35.86132 1.84237,-4.16497 6.4732,-5.96823 8.95451,-3.48691 1.11134,1.11134 1.15301,1.47605 0.70941,6.20972 -1.41619,15.11236 -0.12386,22.45222 6.97168,39.59596 4.8303,11.67064 5.32657,13.7395 3.93935,16.42254 -0.85842,1.66028 -1.37131,2.02898 -3.01774,2.16939 -1.62955,0.13897 -2.37641,-0.18577 -4.18496,-1.81968 z"
       id="path2305"
       transform="scale(0.26458333)" />
    <path
       style="fill:#000000;fill-opacity:1;stroke:none;stroke-width:0.799018;stroke-linecap:round;stroke-linejoin:round;stroke-dashoffset:28;paint-order:stroke fill markers"
       d="m 501.92558,951.34541 c -3.09984,-2.10639 -3.99179,-5.07198 -3.63399,-12.08243 0.29496,-5.77941 1.46627,-9.74662 3.5611,-12.06137 1.12311,-1.24102 6.14409,-1.35007 8.40197,-0.18247 3.16906,1.63878 4.50199,7.66895 3.40939,15.42404 -0.72135,5.12004 -1.94767,7.37109 -4.92819,9.04623 -2.79798,1.57255 -4.33188,1.54012 -6.81028,-0.144 z"
       id="path2344"
       transform="scale(0.26458333)" />
    <path
       style="fill:#000000;fill-opacity:1;stroke:none;stroke-width:0.799018;stroke-linecap:round;stroke-linejoin:round;stroke-dashoffset:28;paint-order:stroke fill markers"
       d="m 558.04759,914.50698 c -6.41924,-2.25549 -25.66102,-18.72761 -30.80446,-26.37046 -2.55142,-3.79126 -2.60321,-5.1988 -0.24418,-6.63713 3.96674,-2.41856 6.03625,-1.42356 15.55387,7.47821 7.23026,6.7624 12.18362,10.78079 18.39249,14.92078 2.5045,1.66997 4.95734,3.65244 5.45076,4.40549 3.02385,4.61497 -2.07852,8.40615 -8.34848,6.20311 z"
       id="path2383"
       transform="scale(0.26458333)" />
    <path
       style="fill:#000000;fill-opacity:1;stroke:none;stroke-width:0.799018;stroke-linecap:round;stroke-linejoin:round;stroke-dashoffset:28;paint-order:stroke fill markers"
       d="m 471.67741,1055.9439 c -2.69885,-2.6989 -1.91074,-6.1906 1.6372,-7.2536 2.55501,-0.7655 4.99871,-0.4013 13.80408,2.0571 6.85748,1.9146 16.81536,2.1509 23.22196,0.551 3.67352,-0.9173 4.37369,-0.9501 5.79072,-0.2709 1.77516,0.8508 3.18831,5.2224 2.69152,6.517 -0.17486,0.4557 -0.85963,0.9738 -1.5217,1.1513 -0.66207,0.1776 -10.95304,-1.6737 -22.86882,-1.6696 -20.8414,0.01 -21.70648,-0.034 -22.75496,-1.0823 z"
       id="path2422"
       transform="scale(0.26458333)"
       sodipodi:nodetypes="csssssscc" />
    <path
       style="fill:#000000;fill-opacity:1;stroke:#000000;stroke-width:0.799018;stroke-linecap:round;stroke-linejoin:round;stroke-dashoffset:28;stroke-opacity:1;paint-order:stroke fill markers"
       d="m 352.39728,826.60691 c -3.14689,-1.73585 -6.35923,-8.65467 -8.00013,-17.23091 -1.05645,-5.52158 -1.0168,-16.24971 0.0797,-21.55811 1.07607,-5.20961 3.61349,-12.27185 5.21963,-14.52746 1.53102,-2.15012 4.00955,-2.09672 5.65848,0.12192 l 1.09559,1.47411 -1.86898,8.18547 c -1.69491,7.4231 -1.86542,8.95659 -1.83082,16.4651 0.0344,7.46866 0.19018,8.76622 1.5901,13.24742 2.75675,8.82444 3.19224,11.17203 2.38564,12.86029 -0.8285,1.73413 -2.32625,2.067 -4.32919,0.96217 z"
       id="path8174"
       transform="scale(0.26458333)" />
    <path
       style="fill:#000000;fill-opacity:1;stroke:#000000;stroke-width:0.799018;stroke-linecap:round;stroke-linejoin:round;stroke-dashoffset:28;stroke-opacity:1;paint-order:stroke fill markers"
       d="m 536.79652,714.17602 c -2.62148,-0.7776 -8.19613,-4.83153 -11.06409,-8.04588 -3.66772,-4.11071 -9.42721,-13.25726 -13.9371,-22.13326 -5.12145,-10.07961 -7.01341,-14.84109 -7.01341,-17.65058 0,-2.36047 0.59101,-3.13499 2.81888,-3.69415 2.03852,-0.51163 3.02655,0.84033 11.57975,15.84504 9.47116,16.61507 11.82679,20.0742 16.33108,23.98147 8.69722,7.54444 9.62592,8.89645 7.4584,10.85803 -1.33336,1.20667 -3.80313,1.54246 -6.17351,0.83933 z"
       id="path8213"
       transform="scale(0.26458333)" />
    <path
       style="fill:#000000;fill-opacity:1;stroke:#000000;stroke-width:0.799018;stroke-linecap:round;stroke-linejoin:round;stroke-dashoffset:28;stroke-opacity:1;paint-order:stroke fill markers"
       d="m 636.90506,769.49772 c -3.88071,-1.39728 -8.68384,-4.77362 -12.50203,-8.78827 -4.61935,-4.85703 -6.09231,-9.2428 -3.80071,-11.31668 2.1537,-1.94907 3.95982,-1.08332 9.47812,4.54328 3.46465,3.53264 5.12271,4.7147 10.16643,7.24779 3.31464,1.66471 6.26979,3.42297 6.567,3.90726 0.86339,1.40685 -0.0386,3.7128 -1.81067,4.62919 -2.12619,1.0995 -4.6164,1.03106 -8.09814,-0.22257 z"
       id="path8252"
       transform="scale(0.26458333)" />
  </g>
</svg>
